<svg xmlns="http://www.w3.org/2000/svg" viewBox="0 0 32 32"><circle cx="16" cy="16" r="15.2" fill="none" stroke="#084686" stroke-width=".8"/><g transform="translate(.95 .5) scale(.43)">
  <g id="rundtopf-breite-pikto" transform="translate(-0.415 -0.186)">
    <rect id="Rechteck_28" data-name="Rechteck 28" width="70" height="72" transform="translate(0.415 0.186)" fill="none"/>
    <path id="Pfad_177" data-name="Pfad 177" d="M2.46,14.673l5.382-4.051L2.46,6.57Z" transform="translate(9.17 15.698)" fill="#084686"/>
    <path id="Pfad_178" data-name="Pfad 178" d="M23.17,10.621l5.4,4.051V6.57Z" transform="translate(29.884 15.698)" fill="#084686"/>
    <path id="Pfad_179" data-name="Pfad 179" d="M6.2,7.59l-.4,2.3H39.34l-.381-2.3Z" transform="translate(12.463 16.704)" fill="#084686"/>
    <path id="Pfad_180" data-name="Pfad 180" d="M7.1,13.342h.762L9.588,29.9h0l.762.894,1.143.477h1.043v.417l.321.318H14.2l.321-.3v-.437h1.163v.417l.341.318h1.343l.3-.3v-.437h.6l3.649-.635,3.809.635h.662v.417l.341.318h1.343l.3-.3v-.437h1.183v.417l.341.318h1.323l.321-.3v-.437h.982l1.163-.477.742-.874h0l1.724-16.582h.782l.682-4.012H6.38Z" transform="translate(13.035 18.419)" fill="#084686"/>
  </g>
</g></svg>